<?xml version="1.0" encoding="utf-8"?>
<!-- Generator: Adobe Illustrator 24.0.2, SVG Export Plug-In . SVG Version: 6.00 Build 0)  -->
<svg version="1.1" id="Capa_1" xmlns="http://www.w3.org/2000/svg" xmlns:xlink="http://www.w3.org/1999/xlink" x="0px" y="0px"
	 viewBox="0 0 200 200" style="enable-background:new 0 0 200 200;" xml:space="preserve">
<style type="text/css">
	.st0{fill:#B43852;}
</style>
<path class="st0" d="M116.44,142.03c2.88-0.49,5.4-0.88,7.9-1.35c3.71-0.7,7.31-1.77,10.78-3.25c10.01-4.26,16.68-11.57,19.81-21.99
	c2.38-7.93,3.14-16.05,1.9-24.27c-0.96-6.3-3.65-11.82-7.75-16.68c-0.23-0.27-0.46-0.55-0.68-0.83c-0.04-0.05-0.05-0.11-0.05-0.1
	c0.47-2.26,1.06-4.45,1.35-6.68c0.74-5.62-0.18-11.06-2.1-16.36c-0.27-0.73-0.73-1.1-1.45-1.06c-1.54,0.09-3.11,0.13-4.62,0.41
	c-3.43,0.63-6.66,1.92-9.73,3.54c-2.64,1.39-5.21,2.91-7.74,4.49c-1.03,0.64-1.92,0.88-3.15,0.55c-6.79-1.79-13.72-2.61-20.74-2.63
	c-7.08-0.02-14.07,0.81-20.92,2.59c-1.29,0.33-2.23,0.14-3.32-0.58c-4.9-3.23-10.01-6.09-15.75-7.57c-1.89-0.49-3.88-0.62-5.82-0.85
	c-1.09-0.13-1.7,0.41-2.07,1.5c-2.43,7.08-3.07,14.22-0.72,21.44c0.33,1.01-0.09,1.56-0.64,2.21c-3.94,4.66-6.48,9.99-7.64,15.98
	c-0.71,3.67-0.67,7.37-0.51,11.07c0.19,4.49,0.86,8.91,2.13,13.23c3.23,10.98,10.15,18.61,20.74,22.93
	c5.07,2.07,10.37,3.2,15.77,3.95c0.58,0.08,1.15,0.18,1.8,0.28c-0.1,0.29-0.12,0.48-0.22,0.59c-2.61,2.79-4.09,6.14-4.76,9.86
	c-0.21,1.18-0.7,1.86-1.88,2.27c-4.07,1.43-8.19,2.23-12.48,1.32c-5.24-1.11-8.89-4.35-11.76-8.72c-1.24-1.88-2.63-3.7-4.18-5.33
	c-2.14-2.24-4.81-3.78-7.89-4.33c-1.44-0.26-2.99-0.27-4.43-0.04c-1.92,0.3-2.25,1.46-0.95,2.88c0.68,0.74,1.45,1.45,2.31,1.96
	c4,2.39,6.66,5.92,8.76,9.96c0.44,0.85,0.87,1.7,1.22,2.59c2.51,6.54,7.45,10.19,14.05,11.82c4.6,1.14,9.24,0.92,13.88,0.18
	c0.82-0.13,1.64-0.28,2.58-0.44c0.06,0.54,0.14,0.99,0.15,1.45c0.06,4.72,0.1,9.44,0.15,14.16c0,0.12,0,0.24,0,0.36
	c0.18,4.38-3.03,5.98-6.66,4.89c-2.11-0.63-4.16-1.48-6.2-2.33c-28.12-11.84-48.57-37.69-53.62-67.75
	C3.37,70.42,33.13,25.37,79.43,14.64c50.91-11.8,98.4,21.05,108.57,68.74c9.43,44.25-15.33,88.64-57.91,103.68
	c-1.21,0.43-2.56,0.67-3.83,0.64c-2.24-0.05-3.73-1.63-3.94-3.88c-0.06-0.59-0.03-1.19-0.03-1.79c0.02-7.83,0.04-15.65,0.08-23.48
	c0.01-3.01-0.35-5.96-1.26-8.83C120.21,146.89,118.78,144.36,116.44,142.03z"/>
</svg>
