<?xml version="1.0" encoding="utf-8"?>
<!-- Generator: Adobe Illustrator 24.0.2, SVG Export Plug-In . SVG Version: 6.00 Build 0)  -->
<svg version="1.1" id="Capa_1" xmlns="http://www.w3.org/2000/svg" xmlns:xlink="http://www.w3.org/1999/xlink" x="0px" y="0px"
	 viewBox="0 0 200 200" style="enable-background:new 0 0 200 200;" xml:space="preserve">
<style type="text/css">
	.st0{fill:#B43851;}
</style>
<path class="st0" d="M10,99.77c0.11-50.09,39.98-89.83,90.05-89.74c49.89,0.08,89.98,40.21,89.95,90.05
	c-0.03,49.56-40.65,90.01-90.26,89.89C49.86,189.86,9.89,149.68,10,99.77z M149.66,149.76c0-16.87,0.82-33.34-0.28-49.67
	c-0.75-11.23-9.98-18.22-21.36-19.02c-9.1-0.64-17.75,0.33-24.93,8.53c-0.76-3.37-1.23-5.44-1.81-7.98c-4.51,0-8.82,0.27-13.09-0.07
	c-5.14-0.4-6.48,1.84-6.41,6.66c0.23,15.23,0.08,30.46,0.08,45.69c0,5.23,0,10.46,0,15.76c7.38,0,13.56,0,20.31,0
	c0-7.15-0.02-13.72,0.01-20.29c0.02-5.58-0.33-11.21,0.26-16.74c0.86-8.01,6.86-13.09,14.34-12.97c7.21,0.12,12.03,4.97,12.91,13.31
	c0.34,3.27,0.21,6.59,0.22,9.89c0.02,8.82,0.01,17.64,0.01,26.91C136.99,149.76,143.17,149.76,149.66,149.76z M69.67,81.61
	c-4.46,0-8.48,0.34-12.42-0.08c-6.04-0.65-7.86,1.64-7.74,7.67c0.36,18,0.11,36.01,0.16,54.01c0.01,2.17,0.38,4.34,0.58,6.46
	c6.91,0,13.11,0,19.42,0C69.67,126.91,69.67,104.72,69.67,81.61z M72.19,59.64c0.08-6.84-5.75-12.68-12.56-12.6
	c-6.65,0.08-11.78,5.45-11.82,12.37c-0.04,7.03,4.81,12.26,11.58,12.48C66.26,72.11,72.11,66.51,72.19,59.64z"/>
</svg>
