<?xml version="1.0" encoding="utf-8"?>
<!-- Generator: Adobe Illustrator 24.0.2, SVG Export Plug-In . SVG Version: 6.00 Build 0)  -->
<svg version="1.1" id="Capa_1" xmlns="http://www.w3.org/2000/svg" xmlns:xlink="http://www.w3.org/1999/xlink" x="0px" y="0px"
	 viewBox="0 0 141.7 141.7" style="enable-background:new 0 0 141.7 141.7;" xml:space="preserve">
<style type="text/css">
	.st0{fill:#B53B54;}
</style>
<g>
	<g>
		<g>
			<path class="st0" d="M21.3,75.9c28.9,0,57.8,0,86.8,0c4.1,0,8.3,0,12.4,0c6.4,0,6.4-10,0-10c-28.9,0-57.8,0-86.8,0
				c-4.1,0-8.3,0-12.4,0C14.8,65.9,14.8,75.9,21.3,75.9L21.3,75.9z"/>
		</g>
	</g>
	<g>
		<g>
			<path class="st0" d="M21.3,43.1c28.9,0,57.8,0,86.8,0c4.1,0,8.3,0,12.4,0c6.4,0,6.4-10,0-10c-28.9,0-57.8,0-86.8,0
				c-4.1,0-8.3,0-12.4,0C14.8,33.1,14.8,43.1,21.3,43.1L21.3,43.1z"/>
		</g>
	</g>
	<g>
		<g>
			<path class="st0" d="M21.3,108.6c28.9,0,57.8,0,86.8,0c4.1,0,8.3,0,12.4,0c6.4,0,6.4-10,0-10c-28.9,0-57.8,0-86.8,0
				c-4.1,0-8.3,0-12.4,0C14.8,98.6,14.8,108.6,21.3,108.6L21.3,108.6z"/>
		</g>
	</g>
</g>
</svg>
