<?xml version="1.0" encoding="utf-8"?>
<!-- Generator: Adobe Illustrator 24.0.2, SVG Export Plug-In . SVG Version: 6.00 Build 0)  -->
<svg version="1.1" id="Capa_1" xmlns="http://www.w3.org/2000/svg" xmlns:xlink="http://www.w3.org/1999/xlink" x="0px" y="0px"
	 viewBox="0 0 144.22 132.93" style="enable-background:new 0 0 144.22 132.93;" xml:space="preserve">
<style type="text/css">
	.st0{fill:#B33051;}
</style>
<path class="st0" d="M23.32,65.25c0-13.48,0.13-26.95-0.09-40.43c-0.06-3.79,1.12-4.77,4.82-4.74c22.81,0.16,45.63,0.17,68.44-0.01
	c3.87-0.03,5.12,1.27,4.63,4.88c-0.15,1.14,0.09,2.34-0.04,3.49c-0.35,3,0.78,4,3.89,4.02c8.5,0.05,8.5,0.2,8.5,8.7
	c0,8.98-0.15,17.97,0.07,26.95c0.08,3.47-0.95,4.96-4.48,4.48c-1.14-0.16-2.34,0.1-3.49-0.05c-3.5-0.46-4.58,0.98-4.55,4.48
	c0.08,8.3-0.09,8.3-8.42,8.3c-11.99,0-23.98,0.18-35.97-0.1c-4.21-0.1-6.02,0.72-5.63,5.39c0.46,5.45,0.04,10.97,0.13,16.46
	c0.04,2.3-0.7,3.28-3.13,3.25c-7.16-0.11-14.32-0.17-21.48,0.02c-3.38,0.09-3.23-1.88-3.22-4.16
	C23.34,92.53,23.32,78.89,23.32,65.25z M68.85,35.37c-4.82,0-9.64,0.07-14.46-0.03c-2.25-0.05-3.32,0.59-3.3,3.06
	c0.09,9.46,0.07,18.93,0.01,28.39c-0.01,2.25,0.68,3.35,3.13,3.33c9.47-0.08,18.95-0.07,28.42-0.01c2.3,0.02,3.32-0.82,3.31-3.18
	c-0.05-9.46-0.1-18.93,0.03-28.39c0.04-2.84-1.32-3.26-3.68-3.2C77.83,35.45,73.34,35.37,68.85,35.37z"/>
</svg>
