<?xml version="1.0" encoding="utf-8"?>
<!-- Generator: Adobe Illustrator 24.0.2, SVG Export Plug-In . SVG Version: 6.00 Build 0)  -->
<svg version="1.1" id="Capa_1" xmlns="http://www.w3.org/2000/svg" xmlns:xlink="http://www.w3.org/1999/xlink" x="0px" y="0px"
	 viewBox="0 0 200 200" style="enable-background:new 0 0 200 200;" xml:space="preserve">
<style type="text/css">
	.st0{fill:#FCE6E2;}
	.st1{fill:#531F4D;}
	.st2{fill:#EF958D;}
	.st3{fill:#FAB64B;}
	.st4{fill:#FFFFFF;}
	.st5{fill:#D36464;}
	.st6{fill:#793574;}
</style>
<g>
	<ellipse transform="matrix(0.7071 -0.7071 0.7071 0.7071 -45.9529 101.8771)" class="st0" cx="100" cy="106.41" rx="90" ry="90"/>
	<g>
		<path class="st1" d="M158.88,153.93c25.41-17.23,10.25-45.52-12.78-83.39c-3.32-5.47-5.46-11.54-6.74-17.81
			c-3.76-18.35-20-32.16-39.46-32.16c-19.62,0-35.97,14.03-39.55,32.61c-1.25,6.46-3.3,12.75-6.37,18.57
			c-21.17,40.06-41.9,72.33-11.64,82.19H158.88z"/>
		<rect x="78.87" y="94.56" class="st2" width="42.16" height="53.78"/>
		<g>
			<path class="st3" d="M177.34,152.42c-19.84-8.34-56.05-14.62-56.05-14.62c-13.9,11.7-31.48,11.62-42.41,0
				c0,0-36.66,5.43-57.35,12.68c14.79,26.27,42.36,44.37,74.3,45.83c1.43,0.04,2.86,0.1,4.3,0.1
				C132.96,196.36,161.66,178.72,177.34,152.42z"/>
			<path class="st4" d="M78.87,131.69l-8.3,7.46c0,0,4.85,20.9,14.75,21.28c9.9,0.38,14.58-13.89,14.58-13.89
				C90.45,144,83.44,139.05,78.87,131.69z"/>
			<path class="st4" d="M121.03,131.69l8.3,7.46c0,0-4.85,20.9-14.75,21.28c-9.9,0.38-14.58-13.89-14.58-13.89
				C109.46,144,116.47,139.05,121.03,131.69z"/>
		</g>
		<g>
			
				<ellipse transform="matrix(0.1602 -0.9871 0.9871 0.1602 61.3002 117.9282)" class="st1" cx="99.95" cy="22.94" rx="19.35" ry="19.35"/>
			<g>
				<g>
					<path class="st2" d="M99.9,29.43L99.9,29.43L99.9,29.43L99.9,29.43L99.9,29.43c-27.18,0.03-33.36,20.39-32.79,40.88
						c0,14.78-1.04,19.57,0.33,23.22c0.76,5.2,11.33,31.76,32.46,31.76s30.8-25.16,32.66-31.76c1.37-3.65,0.13-8.44,0.13-23.22
						C133.26,49.82,127.08,29.46,99.9,29.43z"/>
				</g>
				<g>
					<path class="st5" d="M99.9,125.89c-7.92,0-15.14-3.58-21.48-10.64l0.9-0.81c6.1,6.79,13.02,10.24,20.58,10.24
						c7.72,0,14.68-3.43,20.68-10.21l0.9,0.8C115.25,122.32,107.99,125.89,99.9,125.89z"/>
				</g>
				<path class="st2" d="M68.31,70.79c0,0-5.46-7.05-11.08-2.93c-5.61,4.12-0.15,27.53,11.08,23.41
					C79.54,87.14,68.31,70.79,68.31,70.79z"/>
				<path class="st2" d="M131.6,70.79c0,0,5.46-7.05,11.08-2.93c5.61,4.12,0.15,27.53-11.08,23.41
					C120.37,87.14,131.6,70.79,131.6,70.79z"/>
				
					<rect x="65.69" y="81.64" transform="matrix(0.9904 -0.1381 0.1381 0.9904 -11.3424 9.9875)" class="st5" width="1.21" height="10.16"/>
				
					<rect x="128.62" y="86.12" transform="matrix(0.0926 -0.9957 0.9957 0.0926 34.947 211.7916)" class="st5" width="10.1" height="1.21"/>
				<path class="st5" d="M60.03,80.02c-1.24-3.62-1.31-6.2-0.19-7.67c0.95-1.25,2.37-1.18,2.43-1.18l-0.07,1.21l0.03-0.6l-0.03,0.6
					c-0.05,0-0.86-0.02-1.41,0.72c-0.58,0.78-0.99,2.55,0.38,6.53L60.03,80.02z"/>
				<path class="st5" d="M140.33,80.02l-1.14-0.39c1.37-4,0.96-5.77,0.37-6.55c-0.56-0.73-1.38-0.71-1.4-0.7l-0.07-1.21
					c0.05,0,1.48-0.07,2.43,1.18C141.64,73.82,141.57,76.4,140.33,80.02z"/>
				<path class="st4" d="M140.14,90.32c0,1.38-1.12,2.5-2.5,2.5c-1.38,0-2.5-1.12-2.5-2.5c0-1.38,1.12-2.5,2.5-2.5
					C139.02,87.81,140.14,88.93,140.14,90.32z"/>
				<path class="st4" d="M65.02,90.32c0,1.38-1.12,2.5-2.5,2.5c-1.38,0-2.5-1.12-2.5-2.5c0-1.38,1.12-2.5,2.5-2.5
					C63.9,87.81,65.02,88.93,65.02,90.32z"/>
			</g>
			<path class="st1" d="M65.76,60.47c21.56,4.56,44.28,4.91,68.38,0c0,0,0.45-33.28-33.28-34.38
				C67.14,24.99,65.76,60.47,65.76,60.47z"/>
			<path class="st6" d="M118.82,25.95c-12.56-4.91-25.29-4.91-37.84,0l-0.44-1.13c12.85-5.02,25.87-5.02,38.72,0L118.82,25.95z"/>
			<path class="st6" d="M135.16,60.02c-0.9-9.43-4.2-17.69-9.83-24.56l0.94-0.77c5.78,7.06,9.18,15.54,10.1,25.21L135.16,60.02z"/>
			<path class="st6" d="M65.63,60.02l-1.2-0.11c0.92-9.67,4.32-18.15,10.1-25.21l0.94,0.77C69.83,42.33,66.53,50.6,65.63,60.02z"/>
			<path class="st6" d="M76.57,62.35l-1.21-0.1c0.43-5.29,1.52-10.66,3.23-15.94l1.15,0.37C78.07,51.88,77,57.15,76.57,62.35z"/>
			<path class="st6" d="M119.91,62.88l-1.21-0.04c0.12-3.57-0.45-7.82-1.7-12.63l1.17-0.3C119.45,54.83,120.03,59.19,119.91,62.88z"
				/>
			<path class="st6" d="M115.82,46.17c-0.89-2.78-1.65-4.62-1.66-4.63l1.11-0.47c0.03,0.08,0.79,1.9,1.7,4.73L115.82,46.17z"/>
		</g>
	</g>
</g>
</svg>
