<?xml version="1.0" encoding="utf-8"?>
<!-- Generator: Adobe Illustrator 24.0.2, SVG Export Plug-In . SVG Version: 6.00 Build 0)  -->
<svg version="1.1" id="Capa_1" xmlns="http://www.w3.org/2000/svg" xmlns:xlink="http://www.w3.org/1999/xlink" x="0px" y="0px"
	 viewBox="0 0 200 200" style="enable-background:new 0 0 200 200;" xml:space="preserve">
<style type="text/css">
	.st0{fill:#FCE6E2;}
	.st1{fill:#FAB64B;}
	.st2{fill:#EF958D;}
	.st3{fill:#FFFFFF;}
	.st4{fill:#91A4D4;}
	.st5{fill:#D36464;}
</style>
<g>
	
		<ellipse transform="matrix(0.7071 -0.7071 0.7071 0.7071 -42.2281 100.3485)" class="st0" cx="100.02" cy="101.15" rx="90" ry="90"/>
	<g>
		<path class="st1" d="M116.93,127.97c6.14-0.24,12.22-0.76,18.19-1.6c11.2-1.58,21.2-4.39,26.44-15.3
			c5.34-11.72-0.77-29.34-6.77-40.27c-3.73-6.8-7.49-13.52-10.12-20.83c-3.65-10.16-6.37-21.09-14.1-29.1
			c-0.3-0.31-0.6-0.61-0.91-0.91c-7.95-7.61-18.69-11.92-29.7-11.92c-16,0-31.46,9.39-38.41,23.87
			c-4.76,9.91-6.38,20.98-10.94,30.99C45.84,73.39,40.16,83.6,38.21,95.1c-1.26,7.42,0.76,14.89,5.96,20.39
			c6.28,6.64,14.63,9.42,23.31,10.63C83.54,128.36,100.35,128.62,116.93,127.97z"/>
		<g>
			<rect x="78.99" y="89.53" class="st2" width="42.16" height="53.78"/>
			<g>
				<path class="st3" d="M177.46,147.39c-19.84-8.34-56.05-14.62-56.05-14.62c-13.9,11.7-31.48,11.62-42.41,0
					c0,0-36.66,5.43-57.35,12.68c14.79,26.27,42.36,44.37,74.3,45.83c1.43,0.04,2.86,0.1,4.3,0.1
					C133.07,191.33,161.78,173.69,177.46,147.39z"/>
			</g>
			<path class="st4" d="M70.43,134.15c-12.1,2.06-34.33,6.23-48.79,11.29c13.25,23.53,36.76,40.5,64.47,44.83
				C86.12,190.28,72.35,165.41,70.43,134.15z"/>
			<path class="st4" d="M129.6,134.15c12.1,2.06,34.33,6.23,48.79,11.29c-13.25,23.53-36.76,40.5-64.47,44.83
				C113.92,190.28,127.69,165.41,129.6,134.15z"/>
		</g>
		<g>
			<g>
				<path class="st2" d="M100.02,24.4L100.02,24.4L100.02,24.4L100.02,24.4L100.02,24.4c-27.18,0.03-33.36,20.39-32.79,40.88
					c0,14.78-1.04,19.57,0.33,23.22c0.76,5.2,11.33,31.76,32.46,31.76c21.13,0,30.8-25.16,32.66-31.76
					c1.37-3.65,0.13-8.44,0.13-23.22C133.38,44.78,127.2,24.43,100.02,24.4z"/>
			</g>
			<g>
				<path class="st5" d="M100.02,120.86c-7.25,0-15.68-4.18-21.48-10.64l0.9-0.81c5.58,6.22,13.66,10.24,20.58,10.24
					c6.96,0,15.27-4.1,20.68-10.21l0.91,0.8C115.98,116.6,107.31,120.86,100.02,120.86z"/>
			</g>
			<path class="st2" d="M67.83,67.24c0,0-5.57-6.55-11.29-2.72c-5.72,3.83-0.15,25.58,11.29,21.75
				C79.27,82.44,67.83,67.24,67.83,67.24z"/>
			<path class="st2" d="M132.31,67.24c0,0,5.57-6.55,11.29-2.72c5.72,3.83,0.15,25.58-11.29,21.75
				C120.87,82.44,132.31,67.24,132.31,67.24z"/>
			
				<rect x="65.81" y="76.61" transform="matrix(0.9904 -0.1381 0.1381 0.9904 -10.6462 9.9555)" class="st5" width="1.21" height="10.16"/>
			
				<rect x="128.74" y="81.08" transform="matrix(0.0926 -0.9957 0.9957 0.0926 40.0645 207.3423)" class="st5" width="10.1" height="1.21"/>
			<path class="st5" d="M59.42,75.85c-1.23-3.27-1.33-5.65-0.3-7.06c0.95-1.3,2.5-1.24,2.56-1.24l-0.06,1.21
				c-0.04,0-0.96-0.03-1.53,0.76c-0.53,0.73-0.88,2.35,0.46,5.91L59.42,75.85z"/>
			<path class="st5" d="M141.19,75.85l-1.13-0.43c1.34-3.56,0.99-5.18,0.46-5.91c-0.57-0.79-1.49-0.76-1.53-0.76l-0.06-1.21
				c0.06,0,1.6-0.06,2.56,1.24C142.52,70.2,142.42,72.57,141.19,75.85z"/>
			<path class="st1" d="M63.59,64.02c5.06-9.05,29.07-7.85,36.48-28.5c7.17,23.57,28.33,16.67,37.68,29.28c0,0-4.46-47.5-37.68-47.5
				C66.85,17.3,63.59,64.02,63.59,64.02z"/>
		</g>
	</g>
</g>
</svg>
