<?xml version="1.0" encoding="utf-8"?>
<!-- Generator: Adobe Illustrator 24.0.2, SVG Export Plug-In . SVG Version: 6.00 Build 0)  -->
<svg version="1.1" id="Capa_1" xmlns="http://www.w3.org/2000/svg" xmlns:xlink="http://www.w3.org/1999/xlink" x="0px" y="0px"
	 viewBox="0 0 200 200" style="enable-background:new 0 0 200 200;" xml:space="preserve">
<style type="text/css">
	.st0{fill:#FCE6E2;}
	.st1{fill:#531F4D;}
	.st2{fill:#EF958D;}
	.st3{fill:#EA5360;}
	.st4{fill:#FFFFFF;}
	.st5{fill:#D36464;}
</style>
<g>
	<circle class="st0" cx="100" cy="102.08" r="90"/>
	<g>
		<path class="st1" d="M152.41,94.86c6.36-37.05-8.9-84.16-50.85-86.85c-13.39-0.86-26.46,4.06-33.22,13.55
			c-23.16,9.13-25.1,49.79-22.51,63.78c7.09,38.37-27.11,31.77-18.42,67.78l71.48-3.94h2.74l70.21,0.9
			C177.75,122.92,149.52,124.76,152.41,94.86z"/>
		<rect x="78.89" y="90.23" class="st2" width="42.16" height="53.78"/>
		<g>
			<path class="st3" d="M177.35,148.09c-19.84-8.34-56.05-14.62-56.05-14.62c-13.9,11.7-31.48,11.62-42.41,0
				c0,0-36.66,5.43-57.35,12.68c14.79,26.27,42.36,44.37,74.3,45.83c1.43,0.04,2.86,0.1,4.3,0.1
				C132.97,192.03,161.67,174.39,177.35,148.09z"/>
		</g>
		<g>
			<path class="st4" d="M137.28,83.73c-1.57,0-2.85,2.27-2.85,5.06s1.27,5.06,2.85,5.06s2.85-2.27,2.85-5.06
				S138.85,83.73,137.28,83.73z M137.28,91.64c-1.08,0-1.96-1.56-1.96-3.48c0-1.92,0.88-3.49,1.96-3.49c1.08,0,1.96,1.56,1.96,3.49
				C139.24,90.08,138.36,91.64,137.28,91.64z"/>
			<path class="st4" d="M59.66,88.79c0,2.8,1.27,5.06,2.85,5.06s2.85-2.27,2.85-5.06s-1.27-5.06-2.85-5.06S59.66,86,59.66,88.79z
				 M60.55,88.15c0-1.92,0.88-3.49,1.96-3.49c1.08,0,1.96,1.56,1.96,3.49c0,1.92-0.88,3.48-1.96,3.48
				C61.43,91.64,60.55,90.08,60.55,88.15z"/>
			<g>
				<path class="st2" d="M99.91,25.1L99.91,25.1L99.91,25.1L99.91,25.1L99.91,25.1c-27.18,0.03-33.36,20.39-32.79,40.88
					c0,14.78-0.09,25.66,1.28,29.32c1.37,3.65,10.9,25.63,31.51,25.66l0,0l0,0l0,0l0,0c20.61-0.04,30.14-22.01,31.51-25.66
					c1.37-3.65,1.28-14.54,1.28-29.32C133.27,45.48,127.09,25.13,99.91,25.1z"/>
			</g>
			<g>
				<path class="st5" d="M99.92,121.56c-8.08-0.01-15.37-3.3-21.67-9.76l0.87-0.84c6.06,6.22,13.06,9.38,20.8,9.39
					c7.61-0.01,14.51-3.08,20.5-9.1l0.86,0.85C115.05,118.37,107.86,121.55,99.92,121.56z"/>
			</g>
			<path class="st2" d="M68.32,65.27c0,0-5.46-8.04-11.08-3.34c-5.61,4.7-0.15,31.41,11.08,26.71
				C79.55,83.94,68.32,65.27,68.32,65.27z"/>
			<path class="st2" d="M131.61,65.27c0,0,5.46-8.04,11.08-3.34c5.61,4.7,0.15,31.41-11.08,26.71
				C120.38,83.94,131.61,65.27,131.61,65.27z"/>
			
				<rect x="66.52" y="80.31" transform="matrix(0.9973 -0.074 0.074 0.9973 -6.0785 5.1989)" class="st5" width="1.21" height="8.66"/>
			
				<rect x="127.99" y="83.55" transform="matrix(0.0743 -0.9972 0.9972 0.0743 38.9946 210.3223)" class="st5" width="9.57" height="1.21"/>
			<path class="st5" d="M60.03,75.75c-1.29-4.29-1.3-7.27-0.03-8.86c0.94-1.18,2.24-1.11,2.28-1.11l-0.08,1.21l0.04-0.6l-0.03,0.6
				c-0.03,0-0.74-0.03-1.28,0.68c-0.55,0.72-1.26,2.67,0.26,7.73L60.03,75.75z"/>
			<path class="st5" d="M140.35,75.75l-1.16-0.35c1.52-5.06,0.82-7.02,0.26-7.73c-0.54-0.7-1.26-0.68-1.28-0.68l-0.07-1.21
				c0.05,0,1.34-0.07,2.28,1.11C141.65,68.49,141.64,71.47,140.35,75.75z"/>
			<path class="st4" d="M64.9,90.11c-0.2,0-0.4-0.03-0.59-0.07c-0.05-0.01-0.09-0.06-0.14-0.08c-0.34,1-0.96,1.67-1.67,1.67
				c-1.08,0-1.96-1.56-1.96-3.48c0-1.92,0.87-3.47,1.94-3.48c0.64-0.08,0.48-0.96,0-0.94c-1.56,0.01-2.83,2.27-2.83,5.06
				c0,2.8,1.27,5.06,2.85,5.06c1.31,0,2.41-1.59,2.74-3.75C65.13,90.11,65.01,90.12,64.9,90.11z"/>
			<path class="st4" d="M137.3,83.73c-0.48-0.02-0.64,0.86,0,0.94c1.07,0.01,1.94,1.57,1.94,3.48c0,1.92-0.88,3.48-1.96,3.48
				c-0.6,0-1.13-0.51-1.49-1.27c-0.1,0.08-0.2,0.16-0.31,0.24c-0.24,0.15-0.49,0.29-0.73,0.43c0.46,1.67,1.42,2.83,2.53,2.83
				c1.57,0,2.85-2.27,2.85-5.06C140.13,86.01,138.86,83.75,137.3,83.73z"/>
			<path class="st1" d="M66.95,63.63c-0.25-14.4,10.49-21.87,10.49-21.87c9.67,16.96,36.34,22.72,60.7,14.3
				c0,0-2.36-40.74-40.42-38.35C59.66,20.09,66.95,63.63,66.95,63.63z"/>
		</g>
	</g>
</g>
</svg>
