<?xml version="1.0" encoding="utf-8"?>
<!-- Generator: Adobe Illustrator 24.0.2, SVG Export Plug-In . SVG Version: 6.00 Build 0)  -->
<svg version="1.1" id="Capa_1" xmlns="http://www.w3.org/2000/svg" xmlns:xlink="http://www.w3.org/1999/xlink" x="0px" y="0px"
	 viewBox="0 0 200 200" style="enable-background:new 0 0 200 200;" xml:space="preserve">
<style type="text/css">
	.st0{fill:#FCE6E2;}
	.st1{fill:#91A4D4;}
	.st2{fill:#EF958D;}
	.st3{fill:#D36464;}
	.st4{fill:#531F4D;}
	.st5{fill:#6784C2;}
</style>
<g>
	<circle class="st0" cx="100" cy="104.44" r="90"/>
	<g>
		<ellipse class="st1" cx="99.72" cy="125.18" rx="26.86" ry="3.81"/>
		<rect x="76.19" y="92.58" class="st2" width="47.62" height="53.78"/>
		<g>
			<path class="st2" d="M148.08,57.72c-2.71-6.47-8.24-3.3-8.24-3.3c3.2-29.43-11.77-48.86-39.83-48.86
				c-28.06,0-43.03,19.43-39.83,48.86c0,0-5.53-3.18-8.24,3.3c-2.71,6.47,2.24,21.66,5.3,26.49c3.06,4.83,8.48,8.48,8.48,8.48
				s0.35,5.42,1.77,9.18c1.41,3.77,17.42,21.09,22.13,23.74c6.17,3.63,15.27,3.63,20.81,0c4.71-2.65,20.72-19.97,22.13-23.74
				c1.41-3.77,1.77-9.18,1.77-9.18s5.42-3.65,8.48-8.48C145.84,79.38,150.78,64.2,148.08,57.72z"/>
			<g>
				<g>
					<path class="st3" d="M55.56,72.27c-0.26-0.95-2.46-9.38,0.57-11.68c1-0.65,1.82-0.59,2.33-0.42c1.57,0.51,2.36,2.54,2.39,2.62
						l-1.13,0.43c-0.17-0.44-0.8-1.64-1.64-1.91c-0.39-0.13-0.8-0.04-1.26,0.26c-1.76,1.34-1,7.08-0.1,10.37L55.56,72.27z"/>
					<path class="st3" d="M144.44,72.27l-1.17-0.32c0.65-2.37,1.89-8.86-0.14-10.4c-0.42-0.27-0.83-0.36-1.23-0.23
						c-0.85,0.27-1.47,1.47-1.64,1.91l-1.13-0.43c0.03-0.09,0.83-2.12,2.4-2.62c0.51-0.17,1.33-0.24,2.3,0.39
						C146.9,62.9,144.7,71.32,144.44,72.27z"/>
				</g>
			</g>
			<path class="st4" d="M100,5.56c-28.06,0-43.03,19.43-39.83,48.86l0,0c3.71,2.41,4.56,8.98,3.98,15.48l0,0
				c0,0-1.24,20.69,2.83,30.45c4.07,9.76,11.15,25.01,33.02,24.82v0c0,0,0,0,0,0c0,0,0,0,0,0v0c21.87,0.19,28.95-15.06,33.02-24.82
				c4.07-9.76,2.83-30.45,2.83-30.45v0c0,0,0,0,0,0c-0.58-6.21-0.59-13.02,3.98-15.48l0-0.01C143.03,24.99,128.06,5.56,100,5.56z
				 M130.71,50.79c0,0-0.54,27.01-4.71,32.93c-4.17,5.92-2.87-7.21-25.99-7.44s-21.83,13.35-26,7.44
				c-4.16-5.91-4.71-32.81-4.71-32.92c0.27-5.97,0.86-11.67,3.42-14.22c3.32-3.3,8.17-2.77,12.32-1.71
				c4.84,1.24,9.84,2.9,14.95,3.04c5.41,0.14,10.54-1.84,15.72-3.1c4.02-0.97,8.4-1.41,11.59,1.77c2.57,2.56,3.15,8.26,3.42,14.24
				L130.71,50.79z"/>
		</g>
		<g>
			<path class="st1" d="M181.44,142.75c-22.56-5.47-54.86-6.93-54.86-6.93c-16.68,13.25-38.98,13.44-53.72,0
				c0,0-31.72,2.06-54.1,7.38c14.49,30.3,45.41,51.23,81.24,51.23h0C136,194.44,167.05,173.29,181.44,142.75z"/>
		</g>
		<path class="st1" d="M72.86,125.18v13.47c19.06,14.06,36.99,14.26,53.72,0v-13.47C117.1,131.33,78.93,130.49,72.86,125.18z"/>
		<path class="st5" d="M99.08,144.08c-2.6,0-5.21-0.11-7.72-0.33c-4.98-0.44-16.82-2.03-19.06-7.33l1.11-0.47
			c1.38,3.26,8.13,5.72,18.05,6.6c13.76,1.21,30.9-1,34.6-6.69l1.01,0.66C123.79,141.58,111.42,144.08,99.08,144.08z"/>
		<path class="st5" d="M99.18,132.87c-4.89,0-9.65-0.23-13.52-0.64c-6.83-0.73-10.91-1.92-12.14-3.56l0.97-0.72
			c0.46,0.61,2.48,2.15,11.3,3.08c14,1.49,35.29,0.29,39.26-3.18l0.8,0.91C122.52,131.67,110.5,132.87,99.18,132.87z"/>
	</g>
</g>
</svg>
