<?xml version="1.0" encoding="utf-8"?>
<!-- Generator: Adobe Illustrator 24.0.2, SVG Export Plug-In . SVG Version: 6.00 Build 0)  -->
<svg version="1.1" id="Capa_1" xmlns="http://www.w3.org/2000/svg" xmlns:xlink="http://www.w3.org/1999/xlink" x="0px" y="0px"
	 viewBox="0 0 200 200" style="enable-background:new 0 0 200 200;" xml:space="preserve">
<style type="text/css">
	.st0{fill:#FCE6E2;}
	.st1{fill:#EF958D;}
	.st2{fill:#FFFFFF;}
	.st3{fill:#FAB64B;}
	.st4{fill:#F2BEB8;}
	.st5{fill:#D36464;}
	.st6{fill:#531F4D;}
</style>
<ellipse transform="matrix(0.7071 -0.7071 0.7071 0.7071 -41.8101 100.161)" class="st0" cx="100" cy="100.55" rx="90" ry="90"/>
<g>
	<g>
		<rect x="76.41" y="88.7" class="st1" width="47.62" height="53.78"/>
		<g>
			<path class="st2" d="M177.14,147.3c-25.41-11.34-53.11-15.36-53.11-15.36c-12.71,13.25-36.38,13.44-47.62,0
				c0,0-27.7,4.02-53.11,15.36c15.8,25.93,44.33,43.25,76.92,43.25C132.81,190.55,161.35,173.23,177.14,147.3z"/>
			<path class="st3" d="M129.21,132.83v52.95c20.13-6.84,37.06-20.62,47.93-38.48C158.39,138.93,138.4,134.55,129.21,132.83z"/>
			<path class="st3" d="M71.14,132.85c-9.23,1.73-29.15,6.11-47.84,14.45c10.86,17.83,27.75,31.59,47.84,38.45V132.85z"/>
			<path class="st4" d="M99.55,148.05c-0.15,0-0.3,0-0.45,0c-12.3-0.13-22.68-5.55-28.47-14.88l1.03-0.64
				c5.57,8.96,15.58,14.18,27.46,14.3c12.37,0.11,23.76-5.35,29.59-14.31l1.01,0.66C123.73,142.37,112.2,148.05,99.55,148.05z"/>
		</g>
	</g>
	<g>
		<path class="st1" d="M146.86,60.05c-2.63-6.28-7.99-3.2-7.99-3.2c3.1-28.55-11.42-47.4-38.64-47.4C73,9.45,58.48,28.3,61.58,56.85
			c0,0-5.37-3.08-7.99,3.2c-2.63,6.28,2.17,21.01,5.14,25.69c2.97,4.68,7.47,2.7,7.47,2.7s1.1,10.77,2.47,14.43
			c1.37,3.65,16.9,20.46,21.47,23.02c5.99,3.52,14.81,3.52,20.19,0c4.57-2.57,20.1-19.37,21.47-23.02
			c1.37-3.65,2.44-14.62,2.44-14.62s4.52,2.17,7.49-2.51C144.69,81.06,149.48,66.33,146.86,60.05z"/>
		<g>
			<path class="st5" d="M100.46,129.12c-3.74,0-7.57-0.9-10.64-2.71c-2.77-1.56-9.13-7.92-13.86-13.17l0.9-0.81
				c4.82,5.34,11.02,11.5,13.56,12.93c5.8,3.41,14.38,3.41,19.56,0.02c2.57-1.45,8.78-7.61,13.6-12.95l0.9,0.81
				c-4.74,5.25-11.1,11.62-13.87,13.18C107.86,128.22,104.2,129.12,100.46,129.12z"/>
			
				<rect x="65.21" y="81.69" transform="matrix(0.9938 -0.1114 0.1114 0.9938 -9.0694 7.863)" class="st5" width="1.21" height="6.77"/>
			
				<rect x="131.28" y="84.38" transform="matrix(0.1042 -0.9946 0.9946 0.1042 36.0238 209.9602)" class="st5" width="6.57" height="1.21"/>
			<g>
				<path class="st5" d="M57.1,74.17c-0.25-0.93-2.39-9.11,0.56-11.35c0.97-0.64,1.78-0.57,2.28-0.41c1.5,0.49,2.25,2.35,2.34,2.56
					l-1.13,0.43c-0.17-0.42-0.77-1.58-1.58-1.84c-0.37-0.12-0.77-0.04-1.21,0.25c-1.7,1.29-0.96,6.85-0.09,10.04L57.1,74.17z"/>
				<path class="st5" d="M143.35,74.17l-1.17-0.32c0.87-3.19,1.61-8.75-0.13-10.06c-0.4-0.26-0.8-0.34-1.17-0.22
					c-0.97,0.31-1.57,1.83-1.58,1.84l-1.13-0.43c0.08-0.21,0.83-2.07,2.33-2.56c0.5-0.16,1.3-0.23,2.24,0.38
					C145.74,65.06,143.6,73.24,143.35,74.17z"/>
			</g>
		</g>
		<g>
			<path class="st6" d="M65.44,71.86c8.08,0.04,1.97-26.03,8.31-32.34c3.22-3.21,49.86-3.08,52.95,0
				c6.34,6.31,0.23,32.38,8.31,32.34c-0.56-6.03-0.58-12.63,3.86-15.02l0-0.01c3.1-28.55-11.42-47.39-38.64-47.39
				C73,9.45,58.48,28.3,61.58,56.85v0C65.18,59.19,66.01,65.56,65.44,71.86z"/>
		</g>
		<path class="st6" d="M100.22,80.51c0,0-19.14-0.42-19.93,12.37h19.93h19.93C119.36,80.09,100.22,80.51,100.22,80.51z"/>
	</g>
</g>
</svg>
