<?xml version="1.0" encoding="utf-8"?>
<!-- Generator: Adobe Illustrator 24.0.2, SVG Export Plug-In . SVG Version: 6.00 Build 0)  -->
<svg version="1.1" id="Capa_1" xmlns="http://www.w3.org/2000/svg" xmlns:xlink="http://www.w3.org/1999/xlink" x="0px" y="0px"
	 viewBox="0 0 200 200" style="enable-background:new 0 0 200 200;" xml:space="preserve">
<style type="text/css">
	.st0{fill:#FCE6E2;}
	.st1{fill:#EF958D;}
	.st2{fill:#EA5360;}
	.st3{fill:#C73046;}
	.st4{fill:#531F4D;}
	.st5{fill:#D36464;}
</style>
<g>
	<ellipse transform="matrix(0.7071 -0.7071 0.7071 0.7071 -41.9762 100.2299)" class="st0" cx="100" cy="100.78" rx="90" ry="90"/>
	<g>
		<g>
			<rect x="76.41" y="89.03" class="st1" width="47.62" height="53.78"/>
			<g>
				<path class="st2" d="M177.14,147.63c-25.41-11.34-53.11-15.36-53.11-15.36c-12.71,13.25-36.38,13.44-47.62,0
					c0,0-27.7,4.02-53.11,15.36c15.8,25.93,44.33,43.25,76.92,43.25C132.81,190.88,161.35,173.56,177.14,147.63z"/>
				<path class="st3" d="M99.55,148.37c-0.15,0-0.3,0-0.45,0c-12.3-0.13-22.68-5.55-28.47-14.88l1.03-0.64
					c5.57,8.96,15.57,14.18,27.45,14.3c0.14,0,0.29,0,0.44,0c12.25,0,23.39-5.46,29.15-14.32l1.01,0.66
					C123.73,142.7,112.2,148.37,99.55,148.37z"/>
			</g>
		</g>
		<g>
			<path class="st4" d="M145.24,59.38c0,24.86-13.65,57.15-43.88,56.54c-32.51,0-44.85-28.67-44.85-53.53
				c-5.69-16.16,1.15-33.7,12.99-36.93C76.91,13.1,89.79,9.12,102.72,9.12C127.58,9.12,152.11,27.4,145.24,59.38z"/>
			<path class="st1" d="M145.17,62.85c-2.53-6.05-7.7-3.08-7.7-3.08c1.08-23.72-11.01-40.18-37.24-40.18
				c-26.24,0-38.18,19.75-37.24,40.18c0,0-5.17-2.97-7.7,3.08c-2.53,6.05,2.09,20.25,4.95,24.76c2.86,4.51,7.2,2.6,7.2,2.6
				s1.06,10.38,2.38,13.91c1.32,3.52,16.29,19.72,20.69,22.19c5.77,3.4,14.27,3.4,19.46,0c4.4-2.48,19.37-18.67,20.69-22.19
				c1.32-3.52,2.36-14.09,2.36-14.09s4.36,2.09,7.22-2.42C143.08,83.1,147.7,68.9,145.17,62.85z"/>
			<g>
				<path class="st5" d="M100.44,127.12c-10.69,0-18.6-7.41-23.62-12.98l0.9-0.81c4.87,5.4,12.52,12.58,22.72,12.58
					c9.64,0,16.67-6.36,22.28-12.58l0.9,0.81C117.84,120.56,110.56,127.12,100.44,127.12z"/>
				
					<rect x="66.45" y="83.71" transform="matrix(0.9938 -0.1115 0.1115 0.9938 -9.2795 8.0193)" class="st5" width="1.21" height="6.52"/>
				
					<rect x="130.16" y="86.28" transform="matrix(0.1041 -0.9946 0.9946 0.1041 33.0347 210.444)" class="st5" width="6.34" height="1.21"/>
				<g>
					<path class="st5" d="M58.63,76.47c-0.25-0.89-2.31-8.79,0.55-10.96c0.95-0.62,1.73-0.56,2.22-0.4
						c1.46,0.47,2.18,2.27,2.26,2.48l-1.13,0.43c-0.16-0.41-0.74-1.51-1.51-1.76c-0.35-0.11-0.73-0.04-1.15,0.24
						c-1.63,1.24-0.92,6.58-0.08,9.65L58.63,76.47z"/>
					<path class="st5" d="M141.81,76.47l-1.17-0.32c0.84-3.07,1.55-8.41-0.11-9.68c-0.38-0.25-0.76-0.32-1.11-0.21
						c-0.77,0.25-1.35,1.36-1.51,1.76l-1.13-0.43c0.08-0.2,0.8-2,2.26-2.48c0.49-0.16,1.27-0.23,2.18,0.37
						C144.12,67.67,142.06,75.57,141.81,76.47z"/>
				</g>
			</g>
			<path class="st4" d="M62.98,59.77c2.24-7.74,5.67-14.48,11.06-19.58c15.14,17.64,33.8,29.14,63.43,19.58l2.28-7.51
				c0,0-3.57-15.93-3.57-16.5c0-0.57-11.72-11.49-11.72-11.49L109.2,18H93.5l-12.52,3.53l-11.04,9.33l-6.96,14V59.77z"/>
		</g>
	</g>
</g>
</svg>
