<?xml version="1.0" encoding="utf-8"?>
<!-- Generator: Adobe Illustrator 24.0.2, SVG Export Plug-In . SVG Version: 6.00 Build 0)  -->
<svg version="1.1" id="Capa_1" xmlns="http://www.w3.org/2000/svg" xmlns:xlink="http://www.w3.org/1999/xlink" x="0px" y="0px"
	 viewBox="0 0 200 200" style="enable-background:new 0 0 200 200;" xml:space="preserve">
<style type="text/css">
	.st0{fill:#FCE6E2;}
	.st1{fill:#EF958D;}
	.st2{fill:#EA5360;}
	.st3{fill:#C73046;}
	.st4{fill:#D36464;}
	.st5{fill:#FFFFFF;}
</style>
<g>
	<ellipse transform="matrix(0.7071 -0.7071 0.7071 0.7071 -41.1773 99.9133)" class="st0" cx="100.02" cy="99.66" rx="90" ry="90"/>
	<g>
		<g>
			<rect x="76.21" y="87.9" class="st1" width="47.62" height="53.78"/>
			<g>
				<path class="st2" d="M176.94,146.51c-25.41-11.34-53.11-15.36-53.11-15.36c-12.71,13.25-36.38,13.44-47.62,0
					c0,0-27.7,4.02-53.11,15.36c15.8,25.93,44.33,43.25,76.92,43.25C132.6,189.76,161.14,172.44,176.94,146.51z"/>
				<path class="st3" d="M99.34,147.25c-0.15,0-0.3,0-0.45,0c-12.3-0.13-22.68-5.55-28.47-14.88l1.03-0.64
					c5.57,8.96,15.57,14.18,27.45,14.3c0.14,0,0.29,0,0.44,0c12.25,0,23.39-5.46,29.15-14.32l1.01,0.66
					C123.52,141.58,112,147.25,99.34,147.25z"/>
			</g>
		</g>
		<g>
			<path class="st1" d="M144.97,61.73c-2.53-6.05-7.7-3.08-7.7-3.08c1.08-23.72-11.01-40.18-37.24-40.18
				c-26.24,0-38.17,19.75-37.24,40.18c0,0-5.17-2.97-7.7,3.08c-2.53,6.05,2.09,20.25,4.95,24.76c2.86,4.51,7.2,2.6,7.2,2.6
				S68.28,99.48,69.6,103c1.32,3.52,16.29,19.72,20.69,22.19c5.77,3.4,14.27,3.4,19.46,0c4.4-2.48,19.37-18.67,20.69-22.19
				c1.32-3.52,2.36-14.09,2.36-14.09s4.36,2.09,7.22-2.42C142.87,81.98,147.5,67.78,144.97,61.73z"/>
			<g>
				<path class="st4" d="M100.24,125.99c-10.69,0-18.6-7.41-23.62-12.98l0.9-0.81c4.87,5.4,12.52,12.58,22.72,12.58
					c9.64,0,16.67-6.36,22.28-12.58l0.9,0.81C117.63,119.43,110.35,125.99,100.24,125.99z"/>
				
					<rect x="66.25" y="82.59" transform="matrix(0.9938 -0.1113 0.1113 0.9938 -9.1365 7.9709)" class="st4" width="1.21" height="6.52"/>
				
					<rect x="129.96" y="85.16" transform="matrix(0.1041 -0.9946 0.9946 0.1041 33.9677 209.2345)" class="st4" width="6.34" height="1.21"/>
				<g>
					<path class="st4" d="M58.43,75.34c-0.25-0.89-2.31-8.79,0.55-10.96c0.95-0.62,1.73-0.55,2.22-0.4
						c1.46,0.47,2.19,2.27,2.26,2.48l-1.13,0.43c-0.16-0.41-0.74-1.51-1.51-1.76c-0.35-0.11-0.73-0.04-1.14,0.24
						c-1.63,1.24-0.92,6.58-0.08,9.65L58.43,75.34z"/>
					<path class="st4" d="M141.61,75.34l-1.17-0.32c0.84-3.07,1.55-8.41-0.11-9.68c-0.38-0.25-0.76-0.32-1.11-0.21
						c-0.78,0.25-1.35,1.36-1.51,1.76l-1.13-0.43c0.08-0.2,0.81-2,2.26-2.48c0.49-0.16,1.27-0.22,2.18,0.37
						C143.92,66.55,141.85,74.45,141.61,75.34z"/>
				</g>
			</g>
			<path class="st5" d="M62.77,58.65c2.98,3.15,4.28,6.92,4.99,11.97c-0.55-16.82,7.27-22.85,7.16-43.56
				c-10.3,1.07-14.6,16.33-13.29,31.13L62.77,58.65z"/>
			<path class="st5" d="M137.21,58.65c-2.98,3.15-4.28,6.92-4.99,11.97c0.55-16.82-7.27-22.85-7.16-43.56
				c10.3,1.07,14.6,16.33,13.29,31.13L137.21,58.65z"/>
		</g>
	</g>
</g>
</svg>
