<?xml version="1.0" encoding="utf-8"?>
<!-- Generator: Adobe Illustrator 24.0.2, SVG Export Plug-In . SVG Version: 6.00 Build 0)  -->
<svg version="1.1" id="Capa_1" xmlns="http://www.w3.org/2000/svg" xmlns:xlink="http://www.w3.org/1999/xlink" x="0px" y="0px"
	 viewBox="0 0 200 200" style="enable-background:new 0 0 200 200;" xml:space="preserve">
<style type="text/css">
	.st0{fill:#FCE6E2;}
	.st1{fill:#EF958D;}
	.st2{fill:#D36464;}
	.st3{fill:#531F4D;}
	.st4{fill:#FAB64B;}
	.st5{fill:#FFFFFF;}
</style>
<g>
	<circle class="st0" cx="100.02" cy="104.81" r="90"/>
	<g>
		<rect x="76.21" y="92.96" class="st1" width="47.62" height="53.78"/>
		<g>
			<path class="st1" d="M146.65,55.2c-2.63-6.28-7.99-3.2-7.99-3.2c3.1-28.55-11.42-47.4-38.64-47.4s-41.74,18.85-38.64,47.4
				c0,0-5.37-3.08-7.99,3.2c-2.63,6.28,2.17,21.01,5.14,25.69c2.97,4.68,8.22,8.22,8.22,8.22s0.34,5.25,1.71,8.91
				c1.37,3.65,16.9,20.46,21.47,23.02c5.99,3.52,14.81,3.52,20.19,0c4.57-2.57,20.1-19.37,21.47-23.02
				c1.37-3.65,1.71-8.91,1.71-8.91s5.25-3.54,8.22-8.22C144.48,76.21,149.28,61.48,146.65,55.2z"/>
			<g>
				<path class="st2" d="M100.26,124.28c-3.74,0-7.56-0.9-10.64-2.71c-2.76-1.55-9.12-7.92-13.86-13.17l0.9-0.81
					c4.82,5.35,11.02,11.5,13.56,12.93c5.79,3.41,14.38,3.42,19.56,0.02c2.57-1.45,8.78-7.61,13.6-12.95l0.9,0.81
					c-4.73,5.25-11.09,11.62-13.87,13.18C107.66,123.38,104,124.28,100.26,124.28z"/>
				
					<rect x="65.38" y="76.82" transform="matrix(0.9925 -0.1224 0.1224 0.9925 -9.6597 8.6986)" class="st2" width="1.21" height="12.34"/>
				
					<rect x="127.86" y="82.39" transform="matrix(0.1106 -0.9939 0.9939 0.1106 36.7203 207.0187)" class="st2" width="12.32" height="1.21"/>
				<g>
					<path class="st2" d="M56.89,69.32c-0.25-0.93-2.39-9.11,0.56-11.35c0.98-0.64,1.77-0.57,2.28-0.41
						c1.5,0.49,2.25,2.35,2.33,2.56l-1.13,0.43c-0.17-0.42-0.77-1.58-1.58-1.84c-0.37-0.12-0.77-0.04-1.21,0.25
						c-1.7,1.29-0.96,6.85-0.09,10.04L56.89,69.32z"/>
					<path class="st2" d="M143.14,69.32L141.98,69c0.87-3.19,1.61-8.75-0.12-10.06c-0.41-0.26-0.8-0.34-1.17-0.22
						c-0.97,0.31-1.57,1.82-1.58,1.84l-1.13-0.43c0.08-0.21,0.83-2.07,2.34-2.56c0.5-0.16,1.3-0.23,2.24,0.38
						C145.54,60.21,143.4,68.4,143.14,69.32z"/>
				</g>
			</g>
			<g>
				<path class="st3" d="M65.23,67.02c8.08,0.04,1.97-26.03,8.31-32.34c3.22-3.21,7.92-2.68,11.95-1.66c4.7,1.2,9.55,2.81,14.5,2.95
					c5.25,0.14,10.22-1.78,15.25-3c3.9-0.95,8.15-1.36,11.24,1.71c6.34,6.31,0.23,32.38,8.31,32.34
					c-0.56-6.03-0.58-12.63,3.86-15.02l0-0.01c3.1-28.55-11.42-47.39-38.64-47.39C72.8,4.61,58.28,23.45,61.38,52v0
					C64.98,54.35,65.8,60.71,65.23,67.02z"/>
			</g>
		</g>
		<path class="st4" d="M176.94,151.56c-25.41-11.34-53.11-15.36-53.11-15.36c-12.71,13.25-36.38,13.44-47.62,0
			c0,0-27.7,4.02-53.11,15.36c15.8,25.93,44.33,43.25,76.92,43.25C132.6,194.81,161.14,177.49,176.94,151.56z"/>
		<polygon class="st5" points="69.78,137.12 76.21,125.58 97.04,144.28 84.29,158.24 		"/>
		<polygon class="st5" points="130.23,137.12 123.8,125.58 102.97,144.28 115.72,158.24 		"/>
	</g>
</g>
</svg>
