<?xml version="1.0" encoding="utf-8"?>
<!-- Generator: Adobe Illustrator 24.0.2, SVG Export Plug-In . SVG Version: 6.00 Build 0)  -->
<svg version="1.1" id="Capa_1" xmlns="http://www.w3.org/2000/svg" xmlns:xlink="http://www.w3.org/1999/xlink" x="0px" y="0px"
	 viewBox="0 0 200 200" style="enable-background:new 0 0 200 200;" xml:space="preserve">
<style type="text/css">
	.st0{fill:#FCE6E2;}
	.st1{fill:#EF958D;}
	.st2{fill:#D36464;}
	.st3{fill:#FAB64B;}
	.st4{fill:#FFFFFF;}
	.st5{fill:#91A4D4;}
	.st6{fill:#6784C2;}
</style>
<g>
	<ellipse transform="matrix(0.7071 -0.7071 0.7071 0.7071 -45.0291 101.4943)" class="st0" cx="100" cy="105.1" rx="90" ry="90"/>
	<g>
		<rect x="73.32" y="93.25" class="st1" width="53.35" height="53.78"/>
		<g>
			<path class="st1" d="M146.63,55.49c-2.63-6.28-7.99-3.2-7.99-3.2c3.1-28.55-11.42-47.4-38.64-47.4S58.26,23.74,61.36,52.3
				c0,0-5.37-3.08-7.99,3.2c-2.63,6.28,2.17,21.01,5.14,25.69c2.97,4.68,8.22,3.58,8.22,3.58s0.34,9.9,1.71,13.55
				c1.37,3.65,10.91,25.67,31.56,25.67s30.19-22.01,31.56-25.67c1.37-3.65,1.71-13.96,1.71-13.96s5.25,1.51,8.22-3.17
				C144.46,76.5,149.26,61.77,146.63,55.49z"/>
			<path class="st2" d="M100,124.59c-12.98,0-24.98-13.93-27.25-16.72l0.94-0.76c2.21,2.72,13.88,16.27,26.32,16.27
				c12.52,0,24.03-13.35,26.21-16.03l0.94,0.76C124.91,110.86,113.07,124.59,100,124.59z"/>
			
				<rect x="65.87" y="77.15" transform="matrix(0.9978 -0.0666 0.0666 0.9978 -5.241 4.6037)" class="st2" width="1.21" height="7.62"/>
			
				<rect x="129.95" y="80.16" transform="matrix(0.0794 -0.9968 0.9968 0.0794 42.4486 207.4854)" class="st2" width="7.22" height="1.21"/>
			<path class="st2" d="M56.94,69.66c-1.74-6.7-1.47-10.82,0.86-12.96l0.82,0.89c-1.94,1.78-2.11,5.63-0.51,11.77L56.94,69.66z"/>
			<path class="st2" d="M143.34,69.66l-1.17-0.3c1.6-6.14,1.43-9.99-0.51-11.77l0.82-0.89C144.81,58.84,145.08,62.96,143.34,69.66z"
				/>
			<path class="st3" d="M143.86,25.73c-10.08-8.14-20.15-16.25-27.93-18.24c-4.67-1.69-10-2.59-15.93-2.59
				c-18.5,0-33.98,5.7-36.36,23.25c-8.43,3.56-6.88,17.31-5.1,23.4c0,0,1.43-0.03,2.81,0.75v0c3.6,2.34,4.42,8.71,3.86,15.02
				c8.08,0.04,1.97-26.03,8.31-32.34c23.98,15.11,56,7.14,56,7.14c0.91,9.84-0.42,25.22,5.26,25.19
				c-0.56-6.03-0.58-12.63,3.86-15.02l0-0.01c0.62-5.71,0.52-11.03-0.23-15.89C141.21,33.76,143.64,30.22,143.86,25.73z"/>
			<g>
				<path class="st4" d="M79.35,84.49c-9.22,0-16.72-7.5-16.72-16.72c0-9.22,7.5-16.72,16.72-16.72c9.22,0,16.72,7.5,16.72,16.72
					C96.08,76.99,88.57,84.49,79.35,84.49z M79.35,52.25c-8.56,0-15.52,6.96-15.52,15.52c0,8.56,6.96,15.52,15.52,15.52
					c8.56,0,15.52-6.96,15.52-15.52C94.87,59.21,87.91,52.25,79.35,52.25z"/>
				<path class="st4" d="M120.65,84.49c-9.22,0-16.72-7.5-16.72-16.72c0-9.22,7.5-16.72,16.72-16.72c9.22,0,16.72,7.5,16.72,16.72
					C137.37,76.99,129.87,84.49,120.65,84.49z M120.65,52.25c-8.56,0-15.52,6.96-15.52,15.52c0,8.56,6.96,15.52,15.52,15.52
					c8.56,0,15.52-6.96,15.52-15.52C136.16,59.21,129.2,52.25,120.65,52.25z"/>
				<path class="st4" d="M104.64,64.15c-1.71-1.59-3.68-2.36-5.54-2.19c-1.48,0.14-2.74,0.87-3.66,2.11l-0.97-0.72
					c1.11-1.5,2.71-2.42,4.52-2.59c2.2-0.21,4.5,0.68,6.47,2.51L104.64,64.15z"/>
			</g>
		</g>
		<path class="st5" d="M176.92,151.85c-25.41-11.34-50.18-15.36-50.18-15.36c-12.71,13.25-42.18,13.44-53.42,0
			c0,0-24.83,4.02-50.24,15.36C38.88,177.78,67.42,195.1,100,195.1C132.58,195.1,161.12,177.78,176.92,151.85z"/>
		<path class="st6" d="M99.15,154.31c-14.74,0-27.52-6.06-35.67-15.51l0.92-0.79c14.71,17.05,44.92,22.73,74.2,0.59l0.73,0.96
			C125.6,149.94,111.67,154.31,99.15,154.31z"/>
	</g>
</g>
</svg>
