<?xml version="1.0" encoding="utf-8"?>
<!-- Generator: Adobe Illustrator 24.0.2, SVG Export Plug-In . SVG Version: 6.00 Build 0)  -->
<svg version="1.1" id="Capa_1" xmlns="http://www.w3.org/2000/svg" xmlns:xlink="http://www.w3.org/1999/xlink" x="0px" y="0px"
	 viewBox="0 0 200 200" style="enable-background:new 0 0 200 200;" xml:space="preserve">
<style type="text/css">
	.st0{fill:#ECECEC;}
	.st1{fill:#AFAFAF;}
	.st2{fill:#858585;}
	.st3{fill:#343434;}
	.st4{fill:#BFBFBF;}
	.st5{fill:#FFFFFF;}
</style>
<g>
	<circle class="st0" cx="100" cy="104.8" r="90"/>
	<g>
		<rect x="76.2" y="93" class="st1" width="47.6" height="53.8"/>
		<g>
			<path class="st1" d="M146.6,55.2c-2.6-6.3-8-3.2-8-3.2c3.1-28.5-11.4-47.4-38.6-47.4S58.3,23.4,61.4,52c0,0-5.4-3.1-8,3.2
				c-2.6,6.3,2.2,21,5.1,25.7s8.2,8.2,8.2,8.2s0.3,5.2,1.7,8.9c1.4,3.7,16.9,20.5,21.5,23c6,3.5,14.8,3.5,20.2,0
				c4.6-2.6,20.1-19.4,21.5-23s1.7-8.9,1.7-8.9s5.2-3.5,8.2-8.2C144.5,76.2,149.3,61.5,146.6,55.2z"/>
			<g>
				<path class="st2" d="M100.3,124.3c-3.7,0-7.6-0.9-10.6-2.7c-2.8-1.6-9.1-7.9-13.9-13.2l0.9-0.8c4.8,5.3,11,11.5,13.6,12.9
					c5.8,3.4,14.4,3.4,19.6,0c2.6-1.4,8.8-7.6,13.6-12.9l0.9,0.8c-4.7,5.2-11.1,11.6-13.9,13.2C107.7,123.4,104,124.3,100.3,124.3z"
					/>
				
					<rect x="65.4" y="76.8" transform="matrix(0.9925 -0.1224 0.1224 0.9925 -9.6616 8.7008)" class="st2" width="1.2" height="12.3"/>
				
					<rect x="127.9" y="82.4" transform="matrix(0.1106 -0.9939 0.9939 0.1106 36.7219 207.0259)" class="st2" width="12.3" height="1.2"/>
				<g>
					<path class="st2" d="M56.9,69.3c-0.2-0.9-2.4-9.1,0.6-11.3c1-0.6,1.8-0.6,2.3-0.4c1.5,0.5,2.2,2.3,2.3,2.6l-1.1,0.4
						c-0.2-0.4-0.8-1.6-1.6-1.8c-0.4-0.1-0.8,0-1.2,0.2c-1.7,1.3-1,6.9-0.1,10L56.9,69.3z"/>
					<path class="st2" d="M143.1,69.3L142,69c0.9-3.2,1.6-8.8-0.1-10.1c-0.4-0.3-0.8-0.3-1.2-0.2c-1,0.3-1.6,1.8-1.6,1.8l-1.1-0.4
						c0.1-0.2,0.8-2.1,2.3-2.6c0.5-0.2,1.3-0.2,2.2,0.4C145.5,60.2,143.4,68.4,143.1,69.3z"/>
				</g>
			</g>
			<g>
				<path class="st3" d="M65.2,67c8.1,0,2-26,8.3-32.3c3.2-3.2,7.9-2.7,11.9-1.7c4.7,1.2,9.6,2.8,14.5,3c5.2,0.1,10.2-1.8,15.2-3
					c3.9-1,8.2-1.4,11.2,1.7c6.3,6.3,0.2,32.4,8.3,32.3c-0.6-6-0.6-12.6,3.9-15v0c3.1-28.5-11.4-47.4-38.6-47.4
					C72.8,4.6,58.3,23.4,61.4,52l0,0C65,54.3,65.8,60.7,65.2,67z"/>
			</g>
		</g>
		<path class="st4" d="M176.9,151.6c-25.4-11.3-53.1-15.4-53.1-15.4c-12.7,13.2-36.4,13.4-47.6,0c0,0-27.7,4-53.1,15.4
			c15.8,25.9,44.3,43.2,76.9,43.2C132.6,194.8,161.1,177.5,176.9,151.6z"/>
		<polygon class="st5" points="69.8,137.1 76.2,125.6 97,144.3 84.3,158.2 		"/>
		<polygon class="st5" points="130.2,137.1 123.8,125.6 103,144.3 115.7,158.2 		"/>
	</g>
</g>
</svg>
