<?xml version="1.0" encoding="utf-8"?>
<!-- Generator: Adobe Illustrator 24.0.2, SVG Export Plug-In . SVG Version: 6.00 Build 0)  -->
<svg version="1.1" id="Capa_1" xmlns="http://www.w3.org/2000/svg" xmlns:xlink="http://www.w3.org/1999/xlink" x="0px" y="0px"
	 viewBox="0 0 141.73 141.73" style="enable-background:new 0 0 141.73 141.73;" xml:space="preserve">
<style type="text/css">
	.st0{fill:#B53B54;}
</style>
<g>
	<g>
		<path class="st0" d="M88.57,100.7c-7.9-7.9-15.8-15.8-23.71-23.71c-0.36-0.36-0.73-0.72-1.09-1.09c-0.13-0.14-0.27-0.28-0.4-0.42
			c-0.25-0.28-0.85-0.64-0.01,0.05c-0.23-0.19-0.43-0.62-0.59-0.87c-0.18-0.3-0.33-0.61-0.5-0.91c-0.56-0.97,0.24,0.77,0.02,0.09
			c-0.23-0.71-0.43-1.4-0.59-2.13c-0.26-1.13,0.02,1.15,0.01-0.01c0-0.28-0.03-0.56-0.03-0.84c0-0.28,0.03-0.56,0.03-0.84
			c0.01-1.16-0.27,1.12-0.01-0.01c0.14-0.61,0.27-1.21,0.48-1.81c0.02-0.05,0.04-0.11,0.06-0.16c0.2-0.51,0.16-0.43-0.11,0.24
			c-0.06-0.24,0.53-1.01,0.65-1.22c0.16-0.26,0.35-0.68,0.59-0.87c-0.77,0.64-0.34,0.41-0.11,0.18c0.18-0.18,0.34-0.37,0.52-0.55
			c0.13-0.13,0.25-0.25,0.38-0.38c4.15-4.15,8.3-8.3,12.45-12.45c3.99-3.99,7.98-7.98,11.97-11.97c1.85-1.85,1.99-5.24,0-7.07
			c-2-1.83-5.09-1.98-7.07,0c-8.02,8.02-16.05,16.05-24.07,24.07c-2.77,2.77-4.89,6.05-5.47,9.99c-0.83,5.63,0.88,11.07,4.91,15.12
			c4.03,4.06,8.08,8.08,12.13,12.13c4.17,4.17,8.33,8.33,12.5,12.5c1.85,1.85,5.24,1.99,7.07,0
			C90.41,105.77,90.55,102.67,88.57,100.7L88.57,100.7z"/>
	</g>
</g>
</svg>
